<svg id="Слой_1" data-name="Слой 1" xmlns="http://www.w3.org/2000/svg" viewBox="0 0 842.89 104.36"><title>dad</title><path d="M71.53,80.38A2.63,2.63,0,0,1,73.65,80a2.93,2.93,0,0,1,1.93,1,5.15,5.15,0,0,1,.9,2,2.32,2.32,0,0,1-.29,2q-.56.78.15,1.25a33.17,33.17,0,0,0,5,1.86,25.51,25.51,0,0,1,6.93,3.3A16.57,16.57,0,0,1,92.65,96a15.51,15.51,0,0,1,2,3.91,18.53,18.53,0,0,1,.29,3.61,7.73,7.73,0,0,1-1.22,4.37,40.83,40.83,0,0,1-3.27,4.3q-2,2.37-4.44,5a34.2,34.2,0,0,1-6.64,5.27,50.11,50.11,0,0,1-8.18,4.27,37.24,37.24,0,0,1-7.79,2.22,16.48,16.48,0,0,1-4.81.39,1.56,1.56,0,0,1-1.15-1.49,34.35,34.35,0,0,1,.42-6.18q.59-4.93,5.81-20.9t5.49-17a4.92,4.92,0,0,1,.9-1.88A8.17,8.17,0,0,1,71.53,80.38Zm6.93,12.26q-3.08-1-4.54-1.49T71.6,93.29q-.85,2.66-1.54,4.59t-1.59,4.71q-.9,2.78-3.1,10.35T62.86,122a3.43,3.43,0,0,0-.1,1.88q.22.39,3.91-.63a32.56,32.56,0,0,0,6.69-2.64,44.84,44.84,0,0,0,7.15-5.08,36.57,36.57,0,0,0,6.59-7q2.44-3.49,2.39-5.37A9.1,9.1,0,0,0,88,98.93a11,11,0,0,0-3.93-3.88A25,25,0,0,0,78.46,92.63Z" transform="translate(-57.4 -36.41)"/><path d="M118.35,86.24q2.25-2.29,3-2.1a3.58,3.58,0,0,1,1.46.78,2.12,2.12,0,0,1,.78,1.37q.1.78.12,2.59a7.41,7.41,0,0,0,.32,2.49,29.1,29.1,0,0,1,.88,4.39q.59,3.71.63,4.52a15.18,15.18,0,0,0,.44,2.42q.39,1.61,4.17.78t7.47-1.86q3.69-1,5.44-1.59t-3.71,1.71a61.44,61.44,0,0,0-7.62,3.59q-2.15,1.32-3.88,2.64a3.94,3.94,0,0,0-1.76,3.15,50.38,50.38,0,0,1-.42,5.05q-.39,3.22-.78,5.66t-.59,4a7.7,7.7,0,0,1-1.07,3,3.09,3.09,0,0,1-2,1.66,1.7,1.7,0,0,1-1.76-.68q-.68-.88-.2-4.32t1-6.15q.49-2.71.93-5.88t-2.05-2.83l-5.22.73q-2.73.39-5.47.73a14.39,14.39,0,0,0-4.57,1.25q-1.83.9-6.45,7.18t-6,8.23q-1.42,2-2.54,2a1.71,1.71,0,0,1-1.61-.85,3.34,3.34,0,0,1,0-2.51,29.3,29.3,0,0,1,3.42-6.18,110,110,0,0,1,6.86-9.3q3.91-4.78,6.49-7.74t4.66-5.81q2.07-2.86,4.71-6.32A61.79,61.79,0,0,1,118.35,86.24Zm1.86,10.16q-.49-3.42-1.88-1.68T115.77,98q-1.17,1.59-4.79,5.57t-.63,3.27a57.39,57.39,0,0,1,7.2-1.15q4.22-.44,4.08-1.81a18,18,0,0,0-.51-2.73Q120.75,99.81,120.21,96.39Z" transform="translate(-57.4 -36.41)"/><path d="M147.5,80.38a2.63,2.63,0,0,1,2.12-.42,2.93,2.93,0,0,1,1.93,1,5.15,5.15,0,0,1,.9,2,2.32,2.32,0,0,1-.29,2q-.56.78.15,1.25a33.17,33.17,0,0,0,5,1.86,25.51,25.51,0,0,1,6.93,3.3A16.57,16.57,0,0,1,168.62,96a15.51,15.51,0,0,1,2,3.91,18.53,18.53,0,0,1,.29,3.61,7.73,7.73,0,0,1-1.22,4.37,40.83,40.83,0,0,1-3.27,4.3q-2,2.37-4.44,5a34.2,34.2,0,0,1-6.64,5.27,50.11,50.11,0,0,1-8.18,4.27,37.24,37.24,0,0,1-7.79,2.22,16.48,16.48,0,0,1-4.81.39,1.56,1.56,0,0,1-1.15-1.49,34.35,34.35,0,0,1,.42-6.18q.59-4.93,5.81-20.9t5.49-17a4.92,4.92,0,0,1,.9-1.88A8.17,8.17,0,0,1,147.5,80.38Zm6.93,12.26q-3.08-1-4.54-1.49t-2.32,2.15Q146.72,96,146,97.88t-1.59,4.71q-.9,2.78-3.1,10.35T138.84,122a3.43,3.43,0,0,0-.1,1.88q.22.39,3.91-.63a32.56,32.56,0,0,0,6.69-2.64,44.84,44.84,0,0,0,7.15-5.08,36.57,36.57,0,0,0,6.59-7q2.44-3.49,2.39-5.37A9.1,9.1,0,0,0,164,98.93a11,11,0,0,0-3.93-3.88A25,25,0,0,0,154.44,92.63Z" transform="translate(-57.4 -36.41)"/><path d="M168.5,121.59a2.08,2.08,0,0,1,1.61-.59,3,3,0,0,1,1.66.39,5.54,5.54,0,0,1,1.37,1.66,17.43,17.43,0,0,1,1.54,3.56A8.37,8.37,0,0,1,175,131a9.63,9.63,0,0,1-2.88,4.54,11.37,11.37,0,0,1-4,2.93q-1.56.49-1.86-.39a1,1,0,0,1,.29-1.27,9.56,9.56,0,0,0,1.86-2.93,11.46,11.46,0,0,0,1.32-3.44,6.56,6.56,0,0,0-.2-1.9,5.11,5.11,0,0,0-.76-1.73,16,16,0,0,0-1-1.27,2.11,2.11,0,0,1-.49-1.37,2.59,2.59,0,0,1,.34-1.44A7.25,7.25,0,0,1,168.5,121.59Z" transform="translate(-57.4 -36.41)"/><path d="M222.06,76.18a2.47,2.47,0,0,1,1.81-.68,1.89,1.89,0,0,1,1.15.78q.46.64,1.34,1.64t.78,1.29a12.11,12.11,0,0,1-.83,1.51q-.73,1.22.2,1.64a23.6,23.6,0,0,0,2.27.85,8,8,0,0,1,2.42,1.27,5.91,5.91,0,0,1,1.44,1.44,3.07,3.07,0,0,1,.42,1.42q0,.81,0,2t-.88.37a11.39,11.39,0,0,0-3.32-1.88,17.94,17.94,0,0,0-4.35-1.29,2.83,2.83,0,0,0-2.71.68,13.32,13.32,0,0,0-1.42,2,45.23,45.23,0,0,0-2.15,5.44q-1.54,4.37-2.15,5.66t-4.08,12Q208.59,123,210.15,124t2.73,1.64q1.17.68,1.1,1.42a3,3,0,0,1-.54,1.42q-.46.68-3.42.61l-6.57-.15a13.42,13.42,0,0,0-4.57.37q-1,.44-1.12.17a4.06,4.06,0,0,1-.24-1.46,5.22,5.22,0,0,1,0-1.46,4.21,4.21,0,0,1,.42-.76,1.2,1.2,0,0,1,1-.54,13.87,13.87,0,0,0,3.15-1.17,5.7,5.7,0,0,0,3.2-4.25q.71-3.12,2.56-9.64t2.73-9.47q.88-3,3.22-9.25t.12-5.71q-2.22.59-1.93,4.15t-.49,1.2a11.26,11.26,0,0,1-.66-4.22,5.66,5.66,0,0,1,1-3,4.81,4.81,0,0,1,1.93-1.64,8.53,8.53,0,0,1,2.66-.63,3.25,3.25,0,0,0,2.39-1.22,22.31,22.31,0,0,0,1.51-2.22A6.43,6.43,0,0,1,222.06,76.18Z" transform="translate(-57.4 -36.41)"/><path d="M260.1,82.19a4.21,4.21,0,0,1,1.76,1.56,4.19,4.19,0,0,0,1.37,1.46,3.92,3.92,0,0,1,1.27,1.27,17.46,17.46,0,0,1,1.07,2.93,23.63,23.63,0,0,1,.78,6.05q.1,3.81.29,5.66a38.24,38.24,0,0,0,.68,4.1q.49,2.25,1.66,6.74a32.82,32.82,0,0,0,2.15,6.35q1,1.86,2.05,3.61t2.15,2q1.07.2,2.44-1.37a12.28,12.28,0,0,0,2.25-5,81.81,81.81,0,0,1,3.32-9.47q2.44-6.05,3.81-10.69a21.69,21.69,0,0,1,7.76-11.57,6.34,6.34,0,0,1,3.42-1.22,11.61,11.61,0,0,1,2.39.1,1.33,1.33,0,0,1,1,.93,1.26,1.26,0,0,1-.49,1.46,29.33,29.33,0,0,0-2.73,3.13,53.73,53.73,0,0,0-4.1,6.05,39.51,39.51,0,0,0-3,6q-.88,2.34-3.12,9.47a59.62,59.62,0,0,1-2.83,8,13,13,0,0,0-1.27,3.13,17.54,17.54,0,0,1-2.44,4.79q-1.76,2.54-2.93,2.83a9,9,0,0,1-3.61-.2,15.1,15.1,0,0,1-3.42-1,8.23,8.23,0,0,1-1.76-1.17,17.08,17.08,0,0,1-2.05-2.34,22.71,22.71,0,0,1-2.73-5.76q-1.46-4.1-2.15-6.35a50.88,50.88,0,0,1-1.27-5.37q-.59-3.12-1.07-7.23t-1.27-3.61a5.05,5.05,0,0,0-1.37,1.27q-.59.78-2.73,4.39a69.74,69.74,0,0,0-3.91,7.62q-1.76,4-3.32,8.2a25.14,25.14,0,0,1-2.49,5.42,1.68,1.68,0,0,1-2.05.78,2.89,2.89,0,0,1-1.61-1.42,5.43,5.43,0,0,1-.49-2.44q0-1.46,2-6.35t3.61-9a39.06,39.06,0,0,1,2.25-5,19.11,19.11,0,0,0,1.56-4,77.09,77.09,0,0,1,2.73-7.23q1.76-4.1,2.64-5.66A5.09,5.09,0,0,1,258,82,2.13,2.13,0,0,1,260.1,82.19Z" transform="translate(-57.4 -36.41)"/><path d="M307.27,84.24a2.8,2.8,0,0,1,2.05.2A2.71,2.71,0,0,1,310.69,86a4.06,4.06,0,0,1,.29,1.86q-.1.78,6.27,0a73.22,73.22,0,0,1,13.89-.32,76.87,76.87,0,0,1,10.94,1.27q3.42.78,3.71,1.46t.1,1a6.51,6.51,0,0,1-2.15,1,11.32,11.32,0,0,1-4.59.49,40.79,40.79,0,0,0-5.27,0q-2.64.15-7.64.15t-11.38.37q-6.37.37-7.37,1.68A8.92,8.92,0,0,0,306,98.2q-.49,2.05,1.32,2.49a45.45,45.45,0,0,0,6.79.73q5,.29,6.25.2a10.12,10.12,0,0,1,2.44.1q1.17.2,2,.27t3,.17a29.29,29.29,0,0,0,3.42,0q1.27-.1,1.07.39a6.08,6.08,0,0,1-.78,1.27q-.59.78-3.44,1.49a48.56,48.56,0,0,1-8.52,1,80.32,80.32,0,0,1-10.16,0q-4.49-.34-5.13.54a8.16,8.16,0,0,0-1,3.2,24.24,24.24,0,0,0-.24,5.22,20.17,20.17,0,0,0,1,5.44,4.85,4.85,0,0,0,2.81,3.27q2,.73,5.69-.1a31.81,31.81,0,0,0,7.86-3q4.13-2.17,5.1-2.66a19.5,19.5,0,0,1,2.93-1.07q2-.59,2.54-.1t.1,1.46a4.34,4.34,0,0,1-1.27,1.56,34.94,34.94,0,0,1-3.49,2.05q-2.71,1.46-5.27,3a32.7,32.7,0,0,1-5.13,2.56,30.78,30.78,0,0,1-4.91,1.49,19.11,19.11,0,0,1-3.61.49,8.88,8.88,0,0,1-2.34-.29,9.5,9.5,0,0,1-2.73-1.46,8.47,8.47,0,0,1-2.64-3,20.44,20.44,0,0,1-1.66-4.69,28.16,28.16,0,0,1-.39-7.86A64.65,64.65,0,0,1,299.7,100a50.27,50.27,0,0,1,4.2-11.38Q306.2,84.53,307.27,84.24Z" transform="translate(-57.4 -36.41)"/><path d="M344.92,84.24a2.8,2.8,0,0,1,2.05.2A2.71,2.71,0,0,1,348.33,86a4.06,4.06,0,0,1,.29,1.86q-.1.78,6.27,0a73.22,73.22,0,0,1,13.89-.32,76.87,76.87,0,0,1,10.94,1.27q3.42.78,3.71,1.46t.1,1a6.51,6.51,0,0,1-2.15,1,11.32,11.32,0,0,1-4.59.49,40.79,40.79,0,0,0-5.27,0q-2.64.15-7.64.15t-11.38.37q-6.37.37-7.37,1.68a8.92,8.92,0,0,0-1.49,3.37q-.49,2.05,1.32,2.49a45.45,45.45,0,0,0,6.79.73q5,.29,6.25.2a10.12,10.12,0,0,1,2.44.1q1.17.2,2,.27t3,.17a29.29,29.29,0,0,0,3.42,0q1.27-.1,1.07.39a6.08,6.08,0,0,1-.78,1.27q-.59.78-3.44,1.49a48.56,48.56,0,0,1-8.52,1,80.32,80.32,0,0,1-10.16,0q-4.49-.34-5.13.54a8.16,8.16,0,0,0-1,3.2,24.24,24.24,0,0,0-.24,5.22,20.17,20.17,0,0,0,1,5.44,4.85,4.85,0,0,0,2.81,3.27q2,.73,5.69-.1a31.81,31.81,0,0,0,7.86-3q4.13-2.17,5.1-2.66A19.5,19.5,0,0,1,366,117.1q2-.59,2.54-.1t.1,1.46a4.34,4.34,0,0,1-1.27,1.56,34.94,34.94,0,0,1-3.49,2.05q-2.71,1.46-5.27,3a32.7,32.7,0,0,1-5.13,2.56,30.78,30.78,0,0,1-4.91,1.49,19.11,19.11,0,0,1-3.61.49,8.88,8.88,0,0,1-2.34-.29,9.5,9.5,0,0,1-2.73-1.46,8.47,8.47,0,0,1-2.64-3,20.44,20.44,0,0,1-1.66-4.69,28.16,28.16,0,0,1-.39-7.86,64.65,64.65,0,0,1,2.2-12.28,50.27,50.27,0,0,1,4.2-11.38Q343.84,84.53,344.92,84.24Z" transform="translate(-57.4 -36.41)"/><path d="M381.78,80.38a2.63,2.63,0,0,1,2.12-.42,2.93,2.93,0,0,1,1.93,1,5.15,5.15,0,0,1,.9,2,2.32,2.32,0,0,1-.29,2q-.56.78.15,1.25a33.17,33.17,0,0,0,5,1.86,25.51,25.51,0,0,1,6.93,3.3A16.57,16.57,0,0,1,402.9,96a15.51,15.51,0,0,1,2,3.91,18.53,18.53,0,0,1,.29,3.61,7.73,7.73,0,0,1-1.22,4.37,40.83,40.83,0,0,1-3.27,4.3q-2,2.37-4.44,5a34.2,34.2,0,0,1-6.64,5.27,50.11,50.11,0,0,1-8.18,4.27,37.24,37.24,0,0,1-7.79,2.22,16.48,16.48,0,0,1-4.81.39,1.56,1.56,0,0,1-1.15-1.49,34.35,34.35,0,0,1,.42-6.18q.59-4.93,5.81-20.9t5.49-17a4.92,4.92,0,0,1,.9-1.88A8.17,8.17,0,0,1,381.78,80.38Zm6.93,12.26q-3.08-1-4.54-1.49t-2.32,2.15Q381,96,380.32,97.88t-1.59,4.71q-.9,2.78-3.1,10.35T373.11,122a3.43,3.43,0,0,0-.1,1.88q.22.39,3.91-.63a32.56,32.56,0,0,0,6.69-2.64,44.84,44.84,0,0,0,7.15-5.08,36.57,36.57,0,0,0,6.59-7q2.44-3.49,2.39-5.37a9.1,9.1,0,0,0-1.46-4.27,11,11,0,0,0-3.93-3.88A25,25,0,0,0,388.71,92.63Z" transform="translate(-57.4 -36.41)"/><path d="M457.12,89.85q5.08.44,6.67.68t5.59.59q4,.34,5.32,1.39t.1,2a5.33,5.33,0,0,1-3.25.9,34.31,34.31,0,0,1-3.78-.2q-1.76-.19-2.71-.24l-5.3-.34q-4.35-.29-5.93-.24a3.29,3.29,0,0,0-2.47,1l-2.25,2.49q-1.37,1.51-3.69,4.69t-4.71,7.13q-2.39,4-4.52,7.54t-2.12,5.59a3.2,3.2,0,0,0,1,2.71,2.39,2.39,0,0,0,2.47.07,18.63,18.63,0,0,1,2.37-.85,11.61,11.61,0,0,0,2.44-1.1,28.93,28.93,0,0,0,3.39-2.25q1.81-1.37-.17.76a35.17,35.17,0,0,0-3,3.59,20.73,20.73,0,0,1-3.86,3.74q-2.83,2.27-4.74,2.37a5.42,5.42,0,0,1-3.39-.9,4.34,4.34,0,0,1-1.81-3.15,26.61,26.61,0,0,1-.32-3.86,10.64,10.64,0,0,1,.78-3.76,30.61,30.61,0,0,1,2.05-4.27q1.27-2.22,4.79-7.59t6.54-10.13q3-4.76.46-4.64t-7.42.2q-4.86.07-7.3.24a11.61,11.61,0,0,0-4,.9,3.63,3.63,0,0,1-3.27-.1,4.85,4.85,0,0,1-2-1.34q-.27-.51,0-.71t1.68-1.34a17.45,17.45,0,0,1,3.05-1.93q1.59-.78,10.86-.63t11.21.24l4.08.22Q452,89.41,457.12,89.85Z" transform="translate(-57.4 -36.41)"/><path d="M482.12,77.2q.39-.39,1.49,0t1.54,2.17q.44,1.81.17,2.1a4.4,4.4,0,0,0-.63,1.27l-1.44,3.81q-1.07,2.83-4.17,10.89T475,107.8q-1,2.32.1,1.9a9.94,9.94,0,0,1,2.22-.59q1.17-.17,3.54-.63t5.88-1.46a18.19,18.19,0,0,0,4.08-1.44,6.34,6.34,0,0,0,1.29-2.54q.73-2.1,3-9.52t2.37-8q.1-.56.73-.37a5.74,5.74,0,0,1,1.44.73,2.16,2.16,0,0,1,1,1.44q.17.9.27,1.64a22.93,22.93,0,0,1-1,4.91q-1.07,4.17-1.54,6.54t-.2,2.71q.27.34,2.37-.2t2.17,1.73q.07,2.27-2.47,3t-3.27,1q-.73.29-1.37,2.22t-2.83,8q-2.2,6.08-3.1,8.3a22.8,22.8,0,0,1-2.64,4.64q-1.73,2.42-.9-1.66t1.17-5.08a22.17,22.17,0,0,0,.71-3.27q.37-2.27.93-4.81t.83-4.44q.27-1.9-4.44-.51l-9,2.66q-4.32,1.27-5.22,3.17t-3.42,9.55q-2.52,7.64-3.2,9.79a6.49,6.49,0,0,1-1.76,3.05q-1.07.9-1.88,0a14,14,0,0,0-1.27-1.29q-.46-.39,2.08-8.35t3.42-10.33q.88-2.37-.46-2.91a2.14,2.14,0,0,1-1.51-1.61,4.92,4.92,0,0,1,.1-2.08q.27-1,2-2a22.81,22.81,0,0,0,2.54-1.64,6.71,6.71,0,0,0,1.64-2.54q.83-1.9,1.64-4t3.1-8.15q2.29-6.08,4.54-11.79t2.66-5.91A3.47,3.47,0,0,0,482.12,77.2Z" transform="translate(-57.4 -36.41)"/><path d="M522.46,76.18a2.47,2.47,0,0,1,1.81-.68,1.89,1.89,0,0,1,1.15.78q.46.64,1.34,1.64t.78,1.29a12.11,12.11,0,0,1-.83,1.51q-.73,1.22.2,1.64a23.6,23.6,0,0,0,2.27.85,8,8,0,0,1,2.42,1.27A5.91,5.91,0,0,1,533,85.92a3.07,3.07,0,0,1,.42,1.42q0,.81,0,2t-.88.37a11.39,11.39,0,0,0-3.32-1.88,17.94,17.94,0,0,0-4.35-1.29,2.83,2.83,0,0,0-2.71.68,13.32,13.32,0,0,0-1.42,2,45.23,45.23,0,0,0-2.15,5.44q-1.54,4.37-2.15,5.66t-4.08,12Q509,123,510.54,124t2.73,1.64q1.17.68,1.1,1.42a3,3,0,0,1-.54,1.42q-.46.68-3.42.61l-6.57-.15a13.42,13.42,0,0,0-4.57.37q-1,.44-1.12.17a4.06,4.06,0,0,1-.24-1.46,5.22,5.22,0,0,1,0-1.46,4.21,4.21,0,0,1,.42-.76,1.2,1.2,0,0,1,1-.54,13.87,13.87,0,0,0,3.15-1.17,5.7,5.7,0,0,0,3.2-4.25q.71-3.12,2.56-9.64t2.73-9.47q.88-3,3.22-9.25t.12-5.71q-2.22.59-1.93,4.15t-.49,1.2a11.26,11.26,0,0,1-.66-4.22,5.66,5.66,0,0,1,1-3,4.81,4.81,0,0,1,1.93-1.64,8.53,8.53,0,0,1,2.66-.63,3.25,3.25,0,0,0,2.39-1.22,22.31,22.31,0,0,0,1.51-2.22A6.43,6.43,0,0,1,522.46,76.18Z" transform="translate(-57.4 -36.41)"/><path d="M547.41,80a6.85,6.85,0,0,1,3.17-.37,13.28,13.28,0,0,1,2.49.63,3.4,3.4,0,0,1,1.76,1.44,6.07,6.07,0,0,1,.83,2.29,4,4,0,0,1-.34,2.39,8.42,8.42,0,0,1-1.27,2,13,13,0,0,0-1.34,1.83,3.09,3.09,0,0,1-1.76,1.37,1.91,1.91,0,0,1-1.66,0q-.51-.37.59-3.08t.1-3.12a3.57,3.57,0,0,0-2.34,0A11.39,11.39,0,0,0,543.77,88a20.72,20.72,0,0,0-4.17,5.37,17,17,0,0,0-2,5,15,15,0,0,0-.15,3.81q.17,1.88.63,4.69t1,5a18.51,18.51,0,0,1,.15,5.83,14.21,14.21,0,0,1-1.78,6q-1.42,2.34-2.64,4a10.85,10.85,0,0,1-2.81,2.66,7.28,7.28,0,0,1-3.56,1.15,7.66,7.66,0,0,1-3.08-.29,5.41,5.41,0,0,1-2.27-2.1,6.33,6.33,0,0,1-1.27-3.08,6.1,6.1,0,0,1,.88-3.22,19.06,19.06,0,0,1,3.08-4,9.86,9.86,0,0,1,3.59-2.69,6.36,6.36,0,0,0,2.64-1.68q1.15-1.2-.1-6.71a25.4,25.4,0,0,1-.61-9.47A22.94,22.94,0,0,1,533,92a20.67,20.67,0,0,1,3.42-4.79,21.62,21.62,0,0,1,4.13-3.69q1.78-1.12,3.42-2.05A16.49,16.49,0,0,1,547.41,80Zm-15.14,36.23q-.73-1.22-3.78,2.59T525.65,124q.22,1.42.93,1.61a2.87,2.87,0,0,0,1.44,0,2.64,2.64,0,0,0,1.32-.78q.59-.61,1.61-1.54a6.4,6.4,0,0,0,1.61-2.34,5.63,5.63,0,0,0,.51-2.49A5.2,5.2,0,0,0,532.27,116.22Z" transform="translate(-57.4 -36.41)"/><path d="M602,91.6c.3-.75,1.8-.3,3,.9s2.1,2.7,1.65,3.6l-2.7,4.65c4.65-4.5,9.15-8.25,12-9.3,9.3-3.15,7.8,7,4.8,16.2a7,7,0,0,1,1.5-.75,9.54,9.54,0,0,1,3.6-1c2.4-.15,4.35,1,5.7,3.9.75,1.65.75,4.2-.45,7.65-.15.3,16-13,16.2-13,.6-.6,1.95-2.25,3.15-.9s1.2,2.1.6,2.7c-.15.15-36,37.95-24.75,7,.15-.6.3-1.05.45-1.65l-.6.3c-4,2.1-9.3,6.45-10.35,8.25v.15c-.45.9-1.8.6-3.15-.6s-1.95-2.85-1.65-3.6c0-.15,9.15-19.65,8.7-19.5-8.1,2.85-29.7,29.25-29.85,29.4-.45.6-1.8.15-3-.9-1.2-1.2-1.95-2.85-1.5-3.6Z" transform="translate(-57.4 -36.41)"/><path d="M653.14,96.55c.6-.45,2.1.15,3.3,1.5s1.5,2.85.9,3.45a8.3,8.3,0,0,0-1.2.9c-3.15,2.85-5.7,7.5-7.35,12.15-1.2,3.9-1.8,7.5-1,9a4.57,4.57,0,0,0,2.85,0,11.77,11.77,0,0,0,4.5-2.85,26.66,26.66,0,0,0,5.85-7.95,30.76,30.76,0,0,0,2.4-6.15A21.34,21.34,0,0,1,657.49,99,16.05,16.05,0,0,1,656,91.6c.3-2.1,1.2-3.6,3-3.9a6.52,6.52,0,0,1,3.75.75,11,11,0,0,1,4.65,5.1A16.18,16.18,0,0,1,669,99a23.17,23.17,0,0,1,0,6.45c3.3.6,8.25,1.2,13.5-1.8.75-.45,1.5-1.05,2.7.3s.9,2.4.15,2.85c-7,3.9-12.3,4.5-16.95,2.85a26.72,26.72,0,0,1-2.85,7.5,29,29,0,0,1-6.15,8.4,14.75,14.75,0,0,1-5.1,3.15,7.33,7.33,0,0,1-5.85-.6,11.12,11.12,0,0,1-3-2.4l-.9-.9c-2.4-3.45-2.25-9-.6-14.25,1.65-4.95,4.5-9.9,7.8-12.9C652.24,97.3,652.69,96.85,653.14,96.55ZM664.09,103a25.37,25.37,0,0,0,0-6.75,13.5,13.5,0,0,0-.75-3.3h.15a1.23,1.23,0,0,0-1,0c-.9,0-1.35.9-1.5,2.25a9.15,9.15,0,0,0,.9,4.65A7.66,7.66,0,0,0,664.09,103Z" transform="translate(-57.4 -36.41)"/><path d="M687,95.5c.45-.75,2-.45,3.15.75,1.35,1.2,2,2.85,1.5,3.6l-3.75,6.75c8.1-6.75,16.95-13.35,20.25-12.45h.3c4.5,1.35,5.25,4.2,4.2,7.95a43.36,43.36,0,0,1-2.55,5.85c-1.95,3.9-4.2,8.25-4.2,8.25,4.8,3.15,21-11.1,21.15-11.1.45-.6,2.1-2.55,3.3-1.2s.45,1.5-.15,2.25c0,0-16.35,19.35-24.15,14.25-6.75-4.35-3.45-10.95-.6-16.8a38.51,38.51,0,0,0,1.65-3.6c-8.55,4.5-28.5,23.55-29.1,24.15-.45.6-1.8.15-3-.9-1.2-1.35-1.95-2.85-1.5-3.6Z" transform="translate(-57.4 -36.41)"/><path d="M737.14,92.2c.75-.6,2.25,0,3.45,1.35s1.65,2.85.9,3.45a61.13,61.13,0,0,0-12,15.6c-2.1,4.2-1.95,6.6-.45,7.35,6.15.9,22.8-15.3,22.8-15.45.6-.6,1.65-1.8,2.85-.45s.75,1.8.15,2.4c-.15,0-25,27-31.5,15.75-2.1-3.75-1.05-8.85,1.5-13.95C728.14,101.8,733.69,95.05,737.14,92.2Zm9.3-4.35c-.6.75-2.1.15-3.3-1-1.2-1.35-1.8-2.85-1.2-3.6l8.4-9.6c.6-.75,1.95-.15,3.3,1,1.2,1.35,1.65,2.85,1.2,3.6Z" transform="translate(-57.4 -36.41)"/><path d="M794.29,36.71c.45-.6,1.95-.3,3.15,1s1.8,2.85,1.35,3.45c0,.15-10.95,15.3-22.65,32.85h38.25c1,0,2.7,1.2,3.45,2.55s.75,2.7-.3,2.7H772.69c-3.15,4.8-6.3,9.75-9.3,14.55V94c0,.6-.3.9-.6.9-9.15,14.85-14.1,23.4-12.45,26.4,2.7,5.1,33.15-19.2,33.15-19.35.6-.45,1.5-.75,2.7.6s.3,2.1-.3,2.55c-.15.15-34.2,33.75-41.55,20.25-2.25-4.2,4.65-18.6,14.25-34.5-.15,0,.9-1.65.9-1.65.3-11.4-38.1-9.9-38.1-9.9-1,0-2.7-1.2-3.45-2.7s-.75-2.55.3-2.55h50.7C781.54,54.41,794.14,36.86,794.29,36.71ZM761.14,86.5l4.5-7.2-18.75-.75C751.39,80.35,758.74,83.35,761.14,86.5Z" transform="translate(-57.4 -36.41)"/><path d="M816.33,48.11c.45-.75,2-.3,3.15.9,1.35,1.2,2,2.85,1.5,3.6l-32.85,53.25c8.25-6.3,16.65-10,17.55-.15.15,1.35.3,11.1.3,11.1.6.75,5.4-.45,18.6-12.75.6-.6,1.5-1.95,2.7-.75,1.2,1.35,1.2,2.4.6,3-14.85,13.8-22,17.25-25.5,13.65-3.6-3.9-2.4-10.95-2.85-16.2-.45-3.75-24.3,23.1-24.45,23.25-.45.6-1.8.15-3-1s-1.95-2.85-1.5-3.6Z" transform="translate(-57.4 -36.41)"/><path d="M830,96.55c.6-.45,2.1.15,3.3,1.5s1.5,2.85.9,3.45a8.3,8.3,0,0,0-1.2.9c-3.15,2.85-5.7,7.5-7.35,12.15-1.2,3.9-1.8,7.5-1,9a4.57,4.57,0,0,0,2.85,0,11.77,11.77,0,0,0,4.5-2.85,26.66,26.66,0,0,0,5.85-7.95,30.76,30.76,0,0,0,2.4-6.15A21.34,21.34,0,0,1,834.34,99a16.05,16.05,0,0,1-1.5-7.35c.3-2.1,1.2-3.6,3-3.9a6.52,6.52,0,0,1,3.75.75,11,11,0,0,1,4.65,5.1,16.18,16.18,0,0,1,1.65,5.4,23.17,23.17,0,0,1,0,6.45c3.3.6,8.25,1.2,13.5-1.8.75-.45,1.5-1.05,2.7.3s.9,2.4.15,2.85c-7,3.9-12.3,4.5-16.95,2.85a26.72,26.72,0,0,1-2.85,7.5,29,29,0,0,1-6.15,8.4,14.75,14.75,0,0,1-5.1,3.15,7.33,7.33,0,0,1-5.85-.6,11.12,11.12,0,0,1-3-2.4l-.9-.9c-2.4-3.45-2.25-9-.6-14.25,1.65-4.95,4.5-9.9,7.8-12.9C829.09,97.3,829.54,96.85,830,96.55ZM840.94,103a25.37,25.37,0,0,0,0-6.75,13.5,13.5,0,0,0-.75-3.3h.15a1.23,1.23,0,0,0-1,0c-.9,0-1.35.9-1.5,2.25a9.15,9.15,0,0,0,.9,4.65A7.66,7.66,0,0,0,840.94,103Z" transform="translate(-57.4 -36.41)"/><path d="M868.53,88c.45-.75,2-.3,3.15.9,1.35,1.2,2,2.85,1.5,3.6l-5.55,8.85c5.25-2.55,12.45-4.95,15.45-1.2,1.35,1.5.9,5,2.85,5.1A36.14,36.14,0,0,0,897,103.6c.9-.3,1.8-1.05,2.7.3,1.05,1.5.45,2-.45,2.1-4.35,1.35-11.55,2.85-14.7,2.55-3.9-.3-5.1-1.35-8.4-5.25-2.25-2.7-15.6,9.15-15.6,9.15-.3.15-8.1,13.35-8.85,14.7-.45.75-1.95.3-3.15-.9s-1.95-2.85-1.5-3.6Z" transform="translate(-57.4 -36.41)"/></svg>