<?xml version="1.0" encoding="utf-8"?>
<!-- Generator: Adobe Illustrator 21.1.0, SVG Export Plug-In . SVG Version: 6.00 Build 0)  -->
<svg version="1.1" id="Слой_1" xmlns="http://www.w3.org/2000/svg" xmlns:xlink="http://www.w3.org/1999/xlink" x="0px" y="0px"
	 viewBox="0 0 1200 256" enable-background="new 0 0 1200 256" xml:space="preserve">
<g>
	<rect y="57" fill="none" width="1200" height="142"/>
	<path fill="#FFFF00" d="M176.294,156.868c0,0.392-0.099,0.722-0.293,0.989c-0.196,0.269-0.513,0.501-0.952,0.695
		s-1.051,0.341-1.831,0.439c-0.782,0.098-1.758,0.146-2.93,0.146c-1.221,0-2.223-0.049-3.003-0.146
		c-0.782-0.099-1.392-0.245-1.831-0.439s-0.758-0.427-0.952-0.695c-0.196-0.268-0.293-0.598-0.293-0.989v-28.931h-33.618v28.931
		c0,0.392-0.099,0.722-0.293,0.989c-0.196,0.269-0.513,0.501-0.952,0.695s-1.051,0.341-1.831,0.439
		c-0.782,0.098-1.783,0.146-3.003,0.146c-1.172,0-2.149-0.049-2.93-0.146c-0.782-0.099-1.404-0.245-1.868-0.439
		c-0.465-0.194-0.782-0.427-0.952-0.695c-0.172-0.268-0.256-0.598-0.256-0.989V90.95c0-0.39,0.084-0.72,0.256-0.989
		c0.17-0.268,0.487-0.513,0.952-0.732c0.463-0.22,1.086-0.366,1.868-0.439c0.78-0.073,1.758-0.11,2.93-0.11
		c1.22,0,2.221,0.037,3.003,0.11c0.78,0.073,1.392,0.22,1.831,0.439s0.756,0.465,0.952,0.732c0.194,0.269,0.293,0.599,0.293,0.989
		v26.807h33.618V90.95c0-0.39,0.097-0.72,0.293-0.989c0.194-0.268,0.513-0.513,0.952-0.732s1.049-0.366,1.831-0.439
		c0.78-0.073,1.782-0.11,3.003-0.11c1.172,0,2.148,0.037,2.93,0.11c0.78,0.073,1.392,0.22,1.831,0.439s0.756,0.465,0.952,0.732
		c0.194,0.269,0.293,0.599,0.293,0.989V156.868z"/>
	<path fill="#FFFF00" d="M199.438,180.818c0,0.341-0.073,0.623-0.22,0.842c-0.146,0.221-0.428,0.403-0.842,0.55
		c-0.416,0.146-0.941,0.268-1.575,0.366c-0.635,0.098-1.417,0.146-2.344,0.146c-1.025,0-1.868-0.049-2.527-0.146
		c-0.659-0.099-1.197-0.22-1.611-0.366c-0.416-0.146-0.708-0.329-0.879-0.55c-0.172-0.219-0.256-0.501-0.256-0.842v-29.37
		c0-1.22,0.194-2.025,0.586-2.417c0.39-0.391,1.146-0.586,2.271-0.586h4.688c1.806-2.197,3.49-4.711,5.054-7.544
		c1.562-2.831,3.014-6.384,4.358-10.657c1.342-4.271,2.575-9.411,3.699-15.417c1.123-6.006,2.148-13.184,3.076-21.533
		c0.097-0.683,0.231-1.306,0.403-1.868c0.17-0.561,0.414-1,0.732-1.318c0.317-0.317,0.696-0.573,1.135-0.769
		c0.439-0.194,0.952-0.293,1.538-0.293h36.621c1.172,0,2.087,0.355,2.747,1.062c0.659,0.708,0.989,1.794,0.989,3.259v55.078h9.155
		c1.025,0,1.758,0.195,2.197,0.586c0.439,0.392,0.659,1.197,0.659,2.417v29.37c0,0.341-0.073,0.623-0.22,0.842
		c-0.146,0.221-0.428,0.403-0.842,0.55c-0.416,0.146-0.965,0.268-1.648,0.366c-0.685,0.098-1.49,0.146-2.417,0.146
		c-0.978,0-1.783-0.049-2.417-0.146c-0.635-0.099-1.161-0.22-1.575-0.366c-0.416-0.146-0.708-0.329-0.879-0.55
		c-0.172-0.219-0.256-0.501-0.256-0.842v-22.119h-59.399V180.818z M244.922,99.007h-20.874c-1.025,7.959-2.087,14.674-3.186,20.142
		c-1.099,5.469-2.271,10.084-3.516,13.843c-1.245,3.761-2.552,6.824-3.918,9.192c-1.368,2.369-2.783,4.456-4.248,6.262h35.742
		V99.007z"/>
	<path fill="#FFFF00" d="M343.066,122.884c0,5.762-0.623,10.938-1.868,15.527c-1.245,4.591-3.076,8.485-5.493,11.683
		c-2.417,3.198-5.409,5.664-8.972,7.396c-3.565,1.732-7.643,2.601-12.231,2.601c-1.954,0-3.761-0.196-5.42-0.586
		c-1.661-0.392-3.285-1-4.871-1.831c-1.587-0.83-3.162-1.879-4.724-3.149c-1.563-1.269-3.223-2.758-4.98-4.468v32.959
		c0,0.391-0.099,0.732-0.293,1.025c-0.196,0.293-0.513,0.537-0.952,0.732c-0.439,0.194-1.051,0.341-1.831,0.439
		c-0.782,0.098-1.783,0.146-3.003,0.146c-1.172,0-2.149-0.049-2.93-0.146c-0.782-0.099-1.404-0.245-1.868-0.439
		c-0.465-0.195-0.782-0.439-0.952-0.732c-0.172-0.293-0.256-0.635-0.256-1.025V90.95c0-0.439,0.073-0.793,0.22-1.062
		c0.146-0.268,0.439-0.5,0.879-0.696c0.439-0.194,1-0.33,1.685-0.403c0.683-0.073,1.513-0.11,2.49-0.11
		c1.025,0,1.868,0.037,2.527,0.11s1.208,0.208,1.648,0.403c0.439,0.196,0.744,0.428,0.916,0.696c0.17,0.269,0.256,0.623,0.256,1.062
		v8.862c2.001-2.051,3.93-3.833,5.786-5.347c1.855-1.513,3.723-2.771,5.603-3.772c1.879-1,3.809-1.758,5.786-2.271
		s4.065-0.769,6.262-0.769c4.785,0,8.862,0.928,12.231,2.783c3.369,1.856,6.116,4.395,8.24,7.617s3.673,6.971,4.651,11.243
		C342.578,113.571,343.066,118.099,343.066,122.884z M330.542,124.275c0-3.369-0.259-6.628-0.773-9.778
		c-0.516-3.149-1.401-5.944-2.653-8.386c-1.253-2.441-2.936-4.395-5.048-5.859c-2.113-1.465-4.742-2.197-7.885-2.197
		c-1.572,0-3.121,0.232-4.643,0.696c-1.523,0.465-3.071,1.197-4.643,2.197c-1.572,1.001-3.218,2.32-4.937,3.955
		c-1.72,1.637-3.538,3.651-5.453,6.042v26.221c3.34,4.054,6.509,7.154,9.507,9.302c2.996,2.149,6.141,3.223,9.432,3.223
		c3.045,0,5.661-0.732,7.847-2.197c2.186-1.465,3.955-3.417,5.307-5.859c1.35-2.44,2.346-5.175,2.984-8.203
		C330.223,130.404,330.542,127.352,330.542,124.275z"/>
	<path fill="#FFFF00" d="M417.48,121.053c0,1.904-0.479,3.259-1.435,4.065s-2.047,1.208-3.274,1.208H369.36
		c0,3.662,0.367,6.958,1.103,9.888s1.963,5.445,3.681,7.544c1.716,2.1,3.949,3.711,6.697,4.834
		c2.748,1.124,6.109,1.685,10.083,1.685c3.141,0,5.936-0.257,8.39-0.769c2.454-0.514,4.576-1.086,6.367-1.722
		c1.791-0.634,3.263-1.208,4.416-1.722c1.154-0.512,2.024-0.769,2.614-0.769c0.343,0,0.649,0.086,0.919,0.257
		c0.27,0.172,0.479,0.428,0.626,0.769c0.146,0.343,0.258,0.818,0.331,1.429c0.073,0.611,0.111,1.354,0.111,2.233
		c0,0.636-0.025,1.185-0.073,1.647c-0.049,0.465-0.11,0.879-0.183,1.246c-0.073,0.365-0.196,0.695-0.366,0.988
		c-0.172,0.293-0.392,0.574-0.659,0.842c-0.269,0.27-1.062,0.709-2.38,1.318c-1.318,0.611-3.028,1.209-5.127,1.795
		c-2.1,0.586-4.53,1.109-7.288,1.574c-2.759,0.464-5.702,0.696-8.826,0.696c-5.42,0-10.169-0.758-14.246-2.271
		c-4.078-1.513-7.507-3.76-10.291-6.738c-2.783-2.978-4.883-6.713-6.299-11.206c-1.417-4.491-2.124-9.716-2.124-15.674
		c0-5.664,0.732-10.754,2.197-15.271c1.465-4.516,3.576-8.35,6.335-11.499c2.758-3.149,6.09-5.566,9.998-7.251
		c3.906-1.685,8.276-2.527,13.11-2.527c5.175,0,9.582,0.831,13.22,2.49c3.637,1.661,6.628,3.895,8.972,6.702
		c2.344,2.809,4.065,6.104,5.164,9.888c1.099,3.785,1.648,7.826,1.648,12.122V121.053z M405.322,117.464
		c0.146-6.347-1.267-11.327-4.238-14.941c-2.972-3.613-7.381-5.42-13.227-5.42c-2.997,0-5.626,0.562-7.885,1.685
		c-2.26,1.124-4.152,2.613-5.675,4.468c-1.523,1.856-2.702,4.017-3.538,6.482c-0.835,2.466-1.301,5.042-1.399,7.727H405.322z"/>
	<path fill="#FFFF00" d="M494.531,156.941c0,0.342-0.099,0.659-0.293,0.952c-0.196,0.293-0.513,0.525-0.952,0.696
		c-0.439,0.17-1.051,0.304-1.831,0.402c-0.782,0.098-1.758,0.146-2.93,0.146s-2.149-0.049-2.93-0.146
		c-0.782-0.099-1.417-0.232-1.904-0.402c-0.489-0.171-0.831-0.403-1.025-0.696c-0.196-0.293-0.293-0.61-0.293-0.952v-37.939
		c0-1.904,0.048-3.845,0.146-5.823c0.097-1.978,0.22-3.918,0.366-5.823c-1.124,1.954-2.356,3.871-3.699,5.75
		c-1.344,1.88-2.699,3.748-4.065,5.603l-27.979,38.232c-0.342,0.392-0.648,0.732-0.916,1.025c-0.269,0.293-0.611,0.525-1.025,0.695
		c-0.416,0.171-0.941,0.293-1.575,0.367c-0.635,0.072-1.417,0.109-2.344,0.109c-1.075,0-1.954-0.049-2.637-0.146
		c-0.685-0.099-1.234-0.232-1.648-0.402c-0.416-0.171-0.708-0.403-0.879-0.696c-0.172-0.293-0.256-0.61-0.256-0.952V90.877
		c0-0.341,0.084-0.659,0.256-0.952c0.17-0.293,0.487-0.537,0.952-0.732c0.463-0.194,1.086-0.33,1.868-0.403
		c0.78-0.073,1.732-0.11,2.856-0.11c2.344,0,3.955,0.183,4.834,0.549s1.318,0.916,1.318,1.648v38.159
		c0,1.904-0.049,3.798-0.146,5.677c-0.099,1.88-0.22,3.748-0.366,5.603c1.123-1.854,2.258-3.673,3.406-5.456
		c1.146-1.782,2.38-3.527,3.699-5.237l28.345-38.745c0.293-0.39,0.597-0.732,0.916-1.025c0.317-0.293,0.707-0.524,1.172-0.696
		c0.463-0.17,1.013-0.293,1.648-0.366c0.634-0.073,1.465-0.11,2.49-0.11s1.892,0.037,2.6,0.11c0.707,0.073,1.269,0.208,1.685,0.403
		c0.414,0.196,0.707,0.439,0.879,0.732c0.17,0.293,0.256,0.635,0.256,1.025V156.941z M488.086,59.822
		c0,2.783-0.416,5.396-1.245,7.837c-0.831,2.442-2.149,4.578-3.955,6.409c-1.807,1.831-4.127,3.272-6.958,4.321
		c-2.833,1.051-6.275,1.575-10.327,1.575c-3.711,0-6.971-0.463-9.778-1.392c-2.809-0.927-5.152-2.258-7.031-3.992
		c-1.88-1.732-3.296-3.845-4.248-6.335s-1.428-5.297-1.428-8.423c0-0.487,0.084-0.903,0.256-1.245
		c0.17-0.341,0.487-0.61,0.952-0.806c0.463-0.194,1.073-0.341,1.831-0.439c0.756-0.097,1.672-0.146,2.747-0.146
		c1.172,0,2.099,0.062,2.783,0.183c0.683,0.123,1.208,0.306,1.575,0.549c0.366,0.245,0.61,0.562,0.732,0.952
		c0.121,0.392,0.183,0.855,0.183,1.392c0,1.563,0.244,3.003,0.732,4.321c0.487,1.318,1.232,2.466,2.234,3.442
		c1,0.978,2.208,1.734,3.625,2.271c1.416,0.538,3.051,0.806,4.907,0.806c1.806,0,3.406-0.268,4.797-0.806
		c1.392-0.537,2.575-1.293,3.552-2.271c0.976-0.976,1.708-2.148,2.197-3.516c0.487-1.366,0.732-2.831,0.732-4.395
		c0-0.487,0.061-0.916,0.183-1.282c0.121-0.366,0.366-0.67,0.732-0.916c0.366-0.244,0.879-0.427,1.538-0.549
		c0.659-0.121,1.549-0.183,2.673-0.183c1.172,0,2.135,0.049,2.893,0.146c0.756,0.099,1.366,0.245,1.831,0.439
		c0.463,0.196,0.793,0.465,0.989,0.806C487.987,58.919,488.086,59.335,488.086,59.822z"/>
	<path fill="#FFFF00" d="M615.527,145.296c0,0.782-0.025,1.465-0.073,2.051c-0.049,0.586-0.135,1.099-0.257,1.538
		s-0.281,0.831-0.476,1.172c-0.195,0.342-0.538,0.758-1.025,1.245c-0.488,0.489-1.514,1.233-3.076,2.233
		c-1.563,1.002-3.504,1.979-5.823,2.93c-2.319,0.953-4.98,1.758-7.983,2.418c-3.003,0.658-6.288,0.988-9.851,0.988
		c-6.152,0-11.708-1.025-16.663-3.076c-4.957-2.051-9.181-5.078-12.671-9.082c-3.492-4.003-6.178-8.947-8.057-14.832
		c-1.88-5.883-2.82-12.658-2.82-20.324c0-7.861,1.013-14.868,3.04-21.021c2.025-6.152,4.871-11.364,8.533-15.637
		c3.662-4.272,8.044-7.531,13.147-9.778c5.102-2.245,10.754-3.369,16.956-3.369c2.734,0,5.395,0.256,7.983,0.769
		c2.587,0.513,4.98,1.161,7.178,1.941c2.197,0.782,4.149,1.685,5.859,2.71c1.709,1.025,2.894,1.868,3.552,2.527
		c0.66,0.659,1.087,1.161,1.282,1.501c0.194,0.342,0.354,0.745,0.476,1.208c0.122,0.465,0.221,1.014,0.293,1.648
		c0.074,0.635,0.11,1.392,0.11,2.271c0,0.978-0.049,1.807-0.147,2.49c-0.099,0.685-0.245,1.258-0.442,1.721
		c-0.196,0.465-0.429,0.806-0.699,1.025c-0.27,0.22-0.602,0.33-0.994,0.33c-0.687,0-1.645-0.476-2.871-1.428
		c-1.229-0.952-2.812-2.001-4.751-3.149c-1.938-1.146-4.294-2.197-7.067-3.149c-2.774-0.952-6.1-1.428-9.977-1.428
		c-4.223,0-8.063,0.842-11.524,2.527c-3.46,1.685-6.419,4.164-8.873,7.434c-2.455,3.272-4.356,7.264-5.707,11.975
		c-1.351,4.713-2.024,10.096-2.024,16.15c0,6.006,0.65,11.316,1.951,15.93c1.3,4.615,3.166,8.472,5.596,11.572
		c2.43,3.102,5.412,5.445,8.946,7.031c3.534,1.588,7.535,2.381,12.002,2.381c3.779,0,7.081-0.463,9.903-1.392
		c2.822-0.927,5.228-1.965,7.216-3.112c1.987-1.146,3.619-2.186,4.896-3.113c1.276-0.927,2.282-1.392,3.019-1.392
		c0.344,0,0.639,0.073,0.884,0.22s0.441,0.428,0.59,0.842c0.146,0.416,0.257,0.989,0.33,1.722S615.527,144.174,615.527,145.296z"/>
	<path fill="#FFFF00" d="M660.864,158.699l-8.789,24.243c-0.293,0.78-1.038,1.379-2.233,1.794c-1.197,0.414-3.016,0.623-5.457,0.623
		c-1.271,0-2.296-0.063-3.076-0.184c-0.781-0.122-1.38-0.329-1.795-0.622s-0.647-0.685-0.695-1.172
		c-0.049-0.489,0.073-1.075,0.366-1.758l9.082-22.925c-0.439-0.194-0.854-0.513-1.245-0.952c-0.392-0.439-0.659-0.903-0.806-1.392
		l-23.511-62.988c-0.392-1.025-0.586-1.831-0.586-2.417s0.194-1.049,0.586-1.392c0.391-0.341,1.025-0.573,1.904-0.696
		c0.879-0.121,2.051-0.183,3.516-0.183s2.611,0.037,3.442,0.11c0.83,0.073,1.489,0.208,1.978,0.403
		c0.487,0.196,0.842,0.476,1.063,0.842c0.219,0.366,0.45,0.868,0.695,1.501l18.823,52.881h0.22l18.164-53.174
		c0.293-0.927,0.646-1.525,1.063-1.794c0.414-0.268,1.036-0.463,1.867-0.586c0.83-0.121,2.025-0.183,3.589-0.183
		c1.366,0,2.49,0.062,3.369,0.183c0.879,0.123,1.525,0.355,1.94,0.696c0.415,0.342,0.623,0.806,0.623,1.392
		s-0.146,1.318-0.439,2.197L660.864,158.699z"/>
	<path fill="#FFFF00" d="M748.022,156.868c0,0.392-0.099,0.722-0.293,0.989c-0.195,0.269-0.513,0.501-0.952,0.695
		s-1.051,0.341-1.831,0.439c-0.781,0.098-1.758,0.146-2.93,0.146c-1.221,0-2.223-0.049-3.003-0.146
		c-0.781-0.099-1.404-0.245-1.868-0.439s-0.794-0.427-0.988-0.695c-0.195-0.268-0.293-0.598-0.293-0.989V99.3H717.7
		c-0.781,7.764-1.721,14.674-2.82,20.728c-1.098,6.055-2.332,11.328-3.698,15.82c-1.367,4.493-2.905,8.276-4.614,11.353
		c-1.71,3.076-3.577,5.556-5.604,7.435c-2.026,1.88-4.224,3.234-6.592,4.064s-4.896,1.245-7.58,1.245
		c-0.439,0-0.818-0.073-1.135-0.22c-0.318-0.146-0.575-0.416-0.77-0.806c-0.195-0.39-0.342-0.939-0.439-1.647
		c-0.099-0.707-0.146-1.623-0.146-2.747c0-1.172,0.037-2.124,0.109-2.856c0.074-0.732,0.195-1.318,0.367-1.758
		c0.17-0.439,0.39-0.732,0.658-0.879s0.598-0.22,0.989-0.22c1.611,0,3.149-0.378,4.614-1.136c1.465-0.756,2.831-2.001,4.102-3.734
		c1.27-1.732,2.465-4.004,3.589-6.813c1.123-2.807,2.148-6.262,3.076-10.363c0.927-4.102,1.806-8.899,2.637-14.392
		c0.83-5.493,1.611-11.803,2.344-18.933c0.098-1.465,0.451-2.551,1.062-3.259c0.61-0.707,1.477-1.062,2.601-1.062h33.838
		c1.172,0,2.087,0.355,2.747,1.062c0.658,0.708,0.988,1.794,0.988,3.259V156.868z"/>
	<path fill="#FFFF00" d="M829.102,156.941c0,0.342-0.099,0.659-0.293,0.952c-0.195,0.293-0.513,0.525-0.952,0.696
		c-0.439,0.17-1.051,0.304-1.831,0.402c-0.781,0.098-1.758,0.146-2.93,0.146s-2.149-0.049-2.93-0.146
		c-0.781-0.099-1.417-0.232-1.904-0.402c-0.488-0.171-0.831-0.403-1.025-0.696c-0.195-0.293-0.293-0.61-0.293-0.952v-37.939
		c0-1.904,0.048-3.845,0.146-5.823c0.098-1.978,0.22-3.918,0.366-5.823c-1.124,1.954-2.356,3.871-3.698,5.75
		c-1.344,1.88-2.699,3.748-4.065,5.603l-27.979,38.232c-0.342,0.392-0.647,0.732-0.915,1.025c-0.27,0.293-0.611,0.525-1.025,0.695
		c-0.416,0.171-0.941,0.293-1.575,0.367c-0.635,0.072-1.417,0.109-2.344,0.109c-1.074,0-1.953-0.049-2.637-0.146
		c-0.685-0.099-1.233-0.232-1.647-0.402c-0.416-0.171-0.709-0.403-0.879-0.696c-0.172-0.293-0.257-0.61-0.257-0.952V90.877
		c0-0.341,0.085-0.659,0.257-0.952c0.17-0.293,0.487-0.537,0.951-0.732c0.464-0.194,1.087-0.33,1.868-0.403
		c0.78-0.073,1.732-0.11,2.856-0.11c2.344,0,3.955,0.183,4.834,0.549s1.318,0.916,1.318,1.648v38.159
		c0,1.904-0.049,3.798-0.146,5.677c-0.099,1.88-0.22,3.748-0.366,5.603c1.123-1.854,2.258-3.673,3.405-5.456
		c1.147-1.782,2.381-3.527,3.699-5.237l28.345-38.745c0.293-0.39,0.598-0.732,0.915-1.025s0.708-0.524,1.172-0.696
		c0.464-0.17,1.014-0.293,1.648-0.366c0.634-0.073,1.465-0.11,2.49-0.11s1.892,0.037,2.6,0.11s1.27,0.208,1.686,0.403
		c0.414,0.196,0.707,0.439,0.879,0.732c0.17,0.293,0.256,0.635,0.256,1.025V156.941z"/>
	<path fill="#FFFF00" d="M934.753,156.209c0.049,1.074-0.293,1.831-1.025,2.271s-2.222,0.659-4.467,0.659
		c-1.222,0-2.223-0.025-3.004-0.073c-0.781-0.05-1.391-0.146-1.83-0.293s-0.745-0.354-0.916-0.622
		c-0.172-0.268-0.281-0.623-0.33-1.063l-4.76-38.452c-0.146-1.366-0.293-2.831-0.439-4.395c-0.146-1.562-0.293-3.149-0.439-4.761
		s-0.282-3.223-0.403-4.834c-0.122-1.611-0.257-3.124-0.403-4.541l-0.072-1.685c-0.439,1.417-0.904,2.906-1.393,4.468
		c-0.488,1.563-1.014,3.149-1.574,4.761c-0.562,1.611-1.099,3.223-1.611,4.834s-0.988,3.125-1.428,4.541l-13.844,39.038
		c-0.195,0.586-0.428,1.074-0.695,1.465c-0.269,0.392-0.635,0.709-1.099,0.952c-0.465,0.243-1.051,0.414-1.758,0.513
		c-0.708,0.098-1.575,0.146-2.601,0.146s-1.88-0.049-2.563-0.146c-0.685-0.099-1.258-0.256-1.722-0.477
		c-0.465-0.219-0.843-0.523-1.136-0.915c-0.293-0.39-0.537-0.879-0.732-1.465l-13.33-39.111c-0.488-1.366-0.988-2.831-1.501-4.395
		c-0.513-1.562-1.025-3.161-1.538-4.797c-0.513-1.635-1.014-3.259-1.502-4.871s-0.903-3.124-1.244-4.541l-0.074,1.685
		c-0.146,1.417-0.293,2.93-0.439,4.541s-0.305,3.223-0.476,4.834c-0.172,1.611-0.342,3.199-0.513,4.761
		c-0.172,1.563-0.306,3.028-0.402,4.395l-4.541,37.793c-0.05,0.586-0.159,1.062-0.33,1.429c-0.172,0.365-0.501,0.635-0.988,0.805
		c-0.489,0.171-1.124,0.293-1.904,0.367c-0.782,0.072-1.808,0.109-3.076,0.109c-1.222,0-2.187-0.049-2.894-0.146
		c-0.708-0.099-1.245-0.27-1.611-0.513s-0.599-0.55-0.696-0.915c-0.098-0.367-0.098-0.817,0-1.355l7.252-62.402
		c0.243-1.562,0.793-2.747,1.647-3.552c0.854-0.806,2.136-1.208,3.845-1.208h5.787c1.415,0,2.624,0.11,3.625,0.33
		c1,0.22,1.855,0.599,2.563,1.135c0.707,0.538,1.306,1.258,1.794,2.161c0.488,0.904,0.953,2.04,1.393,3.406l9.74,28.052
		c0.537,1.71,1.1,3.431,1.686,5.164c0.586,1.733,1.135,3.441,1.647,5.127c0.513,1.684,1,3.332,1.465,4.943
		c0.464,1.611,0.891,3.149,1.282,4.614h0.146c0.439-1.513,0.89-3.112,1.354-4.798c0.464-1.684,0.964-3.393,1.501-5.127
		c0.537-1.732,1.087-3.453,1.648-5.163c0.561-1.708,1.11-3.344,1.648-4.907l9.74-27.905c0.391-1.22,0.817-2.282,1.282-3.186
		c0.464-0.903,1.037-1.635,1.722-2.197c0.683-0.561,1.501-0.976,2.453-1.245c0.952-0.268,2.111-0.403,3.479-0.403h5.713
		c1.758,0,3.088,0.366,3.992,1.099c0.903,0.732,1.428,1.904,1.574,3.516L934.753,156.209z"/>
	<path fill="#FFFF00" d="M1014.258,123.177c0,5.372-0.708,10.315-2.124,14.831c-1.417,4.518-3.528,8.412-6.335,11.683
		c-2.809,3.272-6.324,5.823-10.547,7.653c-4.225,1.832-9.119,2.747-14.686,2.747c-5.42,0-10.145-0.806-14.172-2.417
		c-4.029-1.611-7.387-3.955-10.071-7.031c-2.686-3.076-4.688-6.812-6.006-11.206s-1.978-9.375-1.978-14.941
		c0-5.371,0.695-10.314,2.088-14.832c1.391-4.516,3.49-8.41,6.299-11.682c2.807-3.271,6.31-5.81,10.51-7.617
		c4.199-1.806,9.106-2.71,14.722-2.71c5.42,0,10.144,0.806,14.173,2.417c4.027,1.611,7.385,3.955,10.07,7.031
		c2.685,3.076,4.699,6.812,6.043,11.206C1013.586,112.703,1014.258,117.66,1014.258,123.177z M1001.733,123.982
		c0-3.563-0.333-6.933-0.998-10.107c-0.666-3.173-1.763-5.957-3.289-8.35c-1.527-2.392-3.597-4.285-6.208-5.676
		s-5.863-2.087-9.755-2.087c-3.598,0-6.689,0.635-9.275,1.904c-2.587,1.271-4.718,3.065-6.393,5.383
		c-1.676,2.32-2.92,5.066-3.732,8.24c-0.813,3.175-1.219,6.641-1.219,10.4c0,3.614,0.332,7.008,0.998,10.181
		c0.665,3.175,1.773,5.945,3.325,8.313c1.552,2.369,3.633,4.248,6.244,5.639c2.611,1.393,5.863,2.088,9.756,2.088
		c3.548,0,6.626-0.634,9.238-1.904c2.611-1.27,4.754-3.051,6.429-5.347c1.676-2.294,2.907-5.028,3.695-8.203
		C1001.339,131.283,1001.733,127.791,1001.733,123.982z"/>
	<path fill="#FFFF00" d="M1086.182,137.898c0,3.468-0.659,6.555-1.978,9.266c-1.318,2.709-3.271,4.98-5.859,6.811
		c-2.589,1.832-5.812,3.223-9.668,4.176c-3.857,0.951-8.35,1.428-13.477,1.428c-1.611,0-3.175-0.013-4.688-0.037
		c-1.514-0.025-2.979-0.072-4.395-0.146c-1.417-0.072-2.819-0.158-4.212-0.256c-1.391-0.099-2.771-0.22-4.138-0.366
		c-1.953-0.243-3.395-0.89-4.321-1.94c-0.928-1.05-1.392-2.601-1.392-4.651V95.418c0-2.001,0.451-3.54,1.354-4.614
		c0.903-1.073,2.282-1.708,4.139-1.904c1.27-0.146,2.624-0.268,4.064-0.366c1.44-0.097,2.918-0.183,4.432-0.256
		c1.513-0.073,3.076-0.134,4.688-0.183c1.611-0.048,3.247-0.073,4.907-0.073c4.735,0,8.837,0.392,12.305,1.172
		c3.467,0.782,6.347,1.93,8.643,3.442c2.295,1.514,3.991,3.369,5.091,5.566c1.098,2.197,1.647,4.713,1.647,7.544
		c0,3.711-0.989,6.885-2.966,9.521c-1.979,2.637-4.896,4.517-8.753,5.64c4.834,1.025,8.471,3.003,10.913,5.933
		C1084.961,129.769,1086.182,133.456,1086.182,137.898z M1071.606,107.283c0-1.611-0.293-3.051-0.879-4.321
		c-0.586-1.269-1.551-2.344-2.894-3.223s-3.076-1.538-5.199-1.978c-2.125-0.439-4.7-0.659-7.728-0.659
		c-2.296,0-4.395,0.062-6.299,0.183c-1.904,0.123-3.516,0.256-4.834,0.403v20.508h12.305c5.028,0,8.874-0.939,11.536-2.82
		C1070.275,113.498,1071.606,110.799,1071.606,107.283z M1073.804,138.118c0-1.952-0.342-3.673-1.025-5.163
		c-0.685-1.489-1.771-2.722-3.259-3.699c-1.49-0.976-3.395-1.708-5.713-2.197c-2.32-0.487-5.066-0.732-8.24-0.732h-11.792v23.364
		c0.927,0.146,1.892,0.257,2.894,0.329c1,0.074,2.025,0.146,3.076,0.221c1.049,0.072,2.099,0.135,3.148,0.183
		c1.05,0.05,2.015,0.073,2.894,0.073c3.174,0,5.884-0.28,8.13-0.842c2.245-0.561,4.113-1.379,5.604-2.454
		c1.488-1.073,2.574-2.38,3.259-3.919C1073.462,141.744,1073.804,140.022,1073.804,138.118z"/>
</g>
<g>
</g>
<g>
</g>
<g>
</g>
<g>
</g>
<g>
</g>
<g>
</g>
<g>
</g>
<g>
</g>
<g>
</g>
<g>
</g>
<g>
</g>
<g>
</g>
<g>
</g>
<g>
</g>
<g>
</g>
</svg>
